
<?xml version="1.0" standalone="no"?> 
<!DOCTYPE svg PUBLIC "-//W3C//DTD SVG 1.1//EN" "http://www.w3.org/Graphics/SVG/1.1/DTD/svg11.dtd">
<svg>
	<defs>

		<g id="ship_1_red"> 
			<path stroke="none" fill="#AC3939" d="M435.25 51.45 L436.35 44 440.2 44 441.3 51.45 441.95 56.3 441.95 62.25 440.1 65.3 436.45 65.3 434.55 62.25 434.55 56.3 435.25 51.45 M450.9 54.95 L451.8 53.35 452.5 53.35 451.6 61.5 450.9 60 450.9 54.95 M440.5 53.85 L436.05 53.85 435.75 56.3 440.75 56.3 440.5 53.85 M425.6 54.95 L425.6 60 424.95 61.5 424 53.35 424.7 53.35 425.6 54.95"/>
			<path stroke="none" fill="#FFFFFF" d="M425.6 54.95 L424.7 53.35 424 53.35 424.95 61.5 425.6 60 427.5 60.9 434.55 62.25 436.45 65.3 440.1 65.3 441.95 62.25 449.05 60.9 450.9 60 451.6 61.5 452.5 53.35 451.8 53.35 450.9 54.95 449.05 55.85 441.3 51.45 440.2 44 436.35 44 435.25 51.45 427.5 55.85 425.6 54.95 M442.2 43.7 L443.15 50.2 449.35 53.7 450.05 52.4 Q450.35 51.9 450.8 51.65 451.25 51.35 451.8 51.35 L452.5 51.35 453.55 51.65 454.3 52.5 454.5 53.6 453.6 61.75 453.05 62.9 451.95 63.5 450.7 63.3 450 62.7 449.95 62.7 449.45 62.9 443.2 64.1 441.8 66.35 441.1 67.05 440.1 67.3 436.45 67.3 435.5 67.05 Q435 66.8 434.75 66.35 L433.35 64.05 427.15 62.9 426.65 62.7 426.6 62.7 425.95 63.25 424.65 63.5 Q424 63.4 423.55 62.9 423.05 62.4 423 61.75 L422.05 53.6 Q421.95 53 422.2 52.5 422.45 51.95 422.95 51.65 423.4 51.35 424 51.35 L424.7 51.35 Q425.25 51.35 425.7 51.65 L426.45 52.4 427.2 53.7 433.45 50.2 434.4 43.7 Q434.5 42.95 435.05 42.5 435.6 42 436.35 42 L440.2 42 Q440.95 42 441.5 42.5 442.05 42.95 442.2 43.7"/>
			<path stroke="none" fill="#4A3C55" d="M440.5 53.85 L440.75 56.3 435.75 56.3 436.05 53.85 440.5 53.85"/>
			<path stroke="none" fill="#B9CED7" d="M435.25 51.45 L434.55 56.3 434.55 62.25 427.5 60.9 425.6 60 425.6 54.95 427.5 55.85 435.25 51.45 M441.95 62.25 L441.95 56.3 441.3 51.45 449.05 55.85 450.9 54.95 450.9 60 449.05 60.9 441.95 62.25"/>
		</g>

	</defs>
</svg>